# xmcd CD database file
#
# Track frame offsets:
#	150
#	20861
#	37689
#	53917
#	79546
#	100117
#	122131
#	128358
#	150032
#	179406
#	198671
#	222394
#	236832
#
# Disc length: 3480 seconds
#
# Revision: 0
# Processed by: cddbd v1.5.2PL0 Copyright (c) Steve Scherf et al.
# Submitted via: CDex 1.70beta2
#
DISCID=a30d960d
DTITLE=Strunz and Farah - Tales of Two Guitars
DYEAR=2018
DGENRE=Jazz
TTITLE0=Butterfly's Wing
TTITLE1=Bolero #3
TTITLE2=El Regalito
TTITLE3=Peaks of Alborz
TTITLE4=Vision Vine
TTITLE5=Aire Caribeno
TTITLE6=Cirrus
TTITLE7=Firoozeh
TTITLE8=Two Moods
TTITLE9=En Los Montes
TTITLE10=Clavo y Canela
TTITLE11=Vals Tico
TTITLE12=Carara
EXTD=YEAR: 2018
EXTT0=
EXTT1=
EXTT2=
EXTT3=
EXTT4=
EXTT5=
EXTT6=
EXTT7=
EXTT8=
EXTT9=
EXTT10=
EXTT11=
EXTT12=
PLAYORDER=
